Coordinates
version=1
nRows=11
nColumns=36
inDegrees=yes

Units are S.I. units (second, meters, Newtons, ...)
If the header above contains a line with 'inDegrees', this indicates whether rotational values are in degrees (yes) or radians (no).

endheader
time	pelvis_tilt	pelvis_list	pelvis_rotation	pelvis_tx	pelvis_ty	pelvis_tz	hip_flexion_r	hip_adduction_r	hip_rotation_r	knee_angle_r	knee_angle_r_beta	ankle_angle_r	subtalar_angle_r	mtp_angle_r	hip_flexion_l	hip_adduction_l	hip_rotation_l	knee_angle_l	knee_angle_l_beta	ankle_angle_l	subtalar_angle_l	mtp_angle_l	lumbar_extension	lumbar_bending	lumbar_rotation	arm_flex_r	arm_add_r	arm_rot_r	elbow_flex_r	pro_sup_r	arm_flex_l	arm_add_l	arm_rot_l	elbow_flex_l	pro_sup_l
      5.16666670	     -7.20095269	      3.70462265	      6.58246770	      1.11921339	      1.25089166	      0.07944045	      6.95350440	     -6.70985302	     -8.93111209	      6.19203425	      0.10807139	    -39.26788652	    -14.44329779	     -7.49999987	      6.64671748	     -3.79811921	     -6.51675185	      3.66822831	      0.06402266	    -45.76883507	      3.70300224	     -7.49999987	    -15.32870496	      3.54100272	     -1.85437337	      4.41231247	    -11.89410974	     39.60136129	     10.06569181	     55.08115938	      0.38730198	    -10.51252700	     39.66977308	     16.92313578	     53.22379248
      5.18333330	     -7.34046169	      3.53771477	      6.69358746	      1.10620424	      1.27552332	      0.09420641	      7.76410196	     -6.68992858	     -9.43837823	      5.84809119	      0.10206845	    -38.63024112	    -14.07603840	     -7.49999987	      8.51640439	     -4.13657235	     -4.89727721	      5.39672200	      0.09419057	    -44.25983405	      5.09047966	     -7.49999987	    -17.09402107	      3.24496605	     -1.65902949	      6.65898588	    -11.61387854	     39.88679209	     11.56270500	     55.79671615	      1.97497140	     -9.97635417	     40.98792538	     16.49902121	     53.67881704
      5.20000000	     -7.48008139	      3.10610233	      7.20600617	      1.12702847	      1.26149787	      0.08698467	      7.68768485	     -6.53846710	     -9.68147151	      5.13209913	      0.08957203	    -38.44537201	    -14.67237494	     -7.49999987	      8.16871412	     -4.58758641	     -5.37314715	      3.66745084	      0.06400909	    -46.90061367	      4.76440454	     -7.49999987	    -16.07329267	      3.67194159	     -2.17075728	      6.61382263	    -11.68194419	     38.91340734	     12.03538206	     55.95177243	      2.68689136	    -10.46047598	     40.79456532	     17.12121857	     54.15566854
      5.21666670	     -7.23872613	      3.08682626	      7.14338403	      1.11315178	      1.28946989	      0.10198085	      7.53030545	     -6.41489439	    -10.35005981	      4.23503646	      0.07391533	    -36.84697851	    -12.38602819	     -7.49999987	      9.28520474	     -4.75823557	     -3.93448418	      4.87365730	      0.08506137	    -44.13750961	      7.28914146	     -7.49999987	    -18.24192099	      3.19613205	     -1.62917174	      8.75041844	    -11.39942065	     38.98270785	     12.68006226	     57.06058116	      4.08492519	    -10.03336793	     41.67634684	     16.90736163	     54.79692222
      5.23333330	     -7.11798592	      2.58286718	      7.70846520	      1.13150579	      1.26679992	      0.09543342	      7.05395505	     -5.86185486	     -9.84891953	      3.50747585	      0.06121700	    -36.07786853	    -12.45307656	     -7.49999987	      8.86461372	     -5.37181924	     -4.56406723	      3.11852887	      0.05442860	    -45.72462304	      6.68322388	     -7.49999987	    -17.32679523	      3.49292447	     -2.02173776	      8.88979600	    -11.41972173	     38.93093834	     12.47969102	     57.03055154	      4.87313003	    -10.54874298	     41.68166069	     16.97502335	     54.77574760
      5.25000000	     -7.08633371	      2.64128186	      7.57066291	      1.11119450	      1.28536683	      0.10835321	      7.50504168	     -5.80138525	     -9.79336952	      3.40458538	      0.05942122	    -33.93563086	     -9.56272158	     -7.49999987	     10.53127583	     -5.38357128	     -3.21926141	      4.68220536	      0.08171990	    -42.53550992	      8.23708715	     -7.49999987	    -19.69276074	      2.78842897	     -1.51459389	     11.31240052	    -11.46741019	     37.63007680	     13.88538060	     58.01409515	      6.05002978	    -10.37230535	     40.87984274	     17.81159254	     55.45685500
      5.26666670	     -7.21782558	      2.23981702	      7.91188249	      1.13203260	      1.24674293	      0.09450621	      7.55829925	     -5.54508904	     -8.57973555	      3.36954839	      0.05880971	    -32.48594594	     -9.55279902	     -7.49999987	     10.51860943	     -5.68316283	     -3.58862633	      3.47554357	      0.06065968	    -44.28050972	      6.26453780	     -7.49999987	    -18.48867970	      3.12036708	     -1.61072940	     11.30181200	    -12.27831840	     37.33738784	     14.15912227	     58.09417450	      6.44097388	    -10.82590340	     40.63005395	     18.66400636	     55.56689898
      5.28333330	     -7.83739564	      2.36518171	      7.52341054	      1.11375692	      1.26069177	      0.10800611	      8.99667779	     -5.80835951	     -7.67231860	      4.18438443	      0.07303129	    -30.07699853	     -8.06149234	     -7.49999987	     13.08451343	     -5.34337155	     -1.80358987	      5.77414200	      0.10077779	    -40.93164519	      7.60978210	     -7.49999987	    -20.08561317	      2.37538498	     -1.05322095	     13.18500331	    -12.69654032	     34.95761325	     15.59096318	     59.70946207	      7.12983421	    -10.17090861	     38.54614447	     19.25433812	     56.77486485
      5.30000000	     -7.87138096	      2.28522115	      7.93744977	      1.13733272	      1.22135096	      0.10186843	      9.03152739	     -5.81513683	     -6.30985376	      4.96222245	      0.08660712	    -27.80442228	     -8.68131665	     -7.49999987	     12.77637161	     -5.22630990	     -1.16576035	      4.63374114	      0.08087404	    -42.65162822	      6.68741412	     -7.49999987	    -18.63823595	      2.16995419	     -1.47038029	     12.69711420	    -13.09241398	     34.42220357	     15.96609682	     59.79431235	      7.36683219	    -10.95176729	     38.10119980	     19.89735112	     56.94009958
      5.31666670	     -8.21981439	      2.59688917	      7.79026807	      1.12164926	      1.23391153	      0.12080068	      9.87436363	     -5.94810715	     -5.46156159	      5.95136623	      0.10387094	    -25.73469983	     -8.10122253	     -7.49999987	     14.97640834	     -4.73320781	      0.52885486	      7.49770510	      0.13085964	    -38.76001552	      9.04521879	     -7.49999987	    -20.21808285	      0.89347650	     -0.63046395	     12.59037816	    -12.69890745	     21.28414241	     20.01632027	     72.97208039	      7.67858869	    -10.46486486	     32.99381576	     20.42801172	     65.36938836
      5.33333330	     -7.96228618	      2.54958465	      8.06812688	      1.14959286	      1.19147748	      0.10833150	      9.28283294	     -5.84343007	     -4.32239084	      6.73124206	      0.11748234	    -23.68147852	     -9.41252049	     -7.49999987	     13.96777920	     -4.54859279	      1.67086725	      6.39076550	      0.11153990	    -40.08700449	      8.03501272	     -7.49999987	    -18.80950636	      0.74158876	     -1.01912195	     11.73949608	    -12.92671733	     19.96614540	     20.71083190	     72.24216714	      7.38290001	    -11.23382036	     32.09896589	     20.97833105	     65.04757374
